{"title":"Forca-Tarefa S03E06 720p HDTV x264-VCVix","uid":6881340,"size":984167093,"categoryP":"video","categoryS":"hd___tv_shows","magnet":"?xt=urn:btih:1a1e8515c8a7da478e4817bcb78b869e313bda81&amp;dn=Forca-Tarefa+S03E06+720p+HDTV+x264-VCVix&amp;tr=udp%3A%2F%2Ftracker.openbittorrent.com%3A80&amp;tr=udp%3A%2F%2Fopen.demonii.com%3A1337&amp;tr=udp%3A%2F%2Ftracker.coppersurfer.tk%3A6969&amp;tr=udp%3A%2F%2Fexodus.desync.com%3A6969","seeders":0,"leechers":1,"uploader":"velosonet","files":-1,"time":1323672549,"description":"Experimente toda a trama de ForÃƒÂ§a-Tarefa @ VELOSO.TV &lt;a href=&quot;\nhttp://u.veloso.tv/ud842d&quot; rel=&quot;nofollow&quot; target=&quot;_NEW&quot;&gt;\nhttp://u.veloso.tv/ud842d&lt;/a&gt;\n\n\nForÃƒÂ§a-Tarefa ÃƒÂ© uma sÃƒÂ©rie que mostra o dia a dia da corregedoria da PolÃƒÂ­cia Militar do Estado do Rio de Janeiro, encarregada de investigar os delitos cometidos pelos prÃƒÂ³prios policiais. Este ÃƒÂ© o tema central de ForÃƒÂ§a-Tarefa, sÃƒÂ©rie investigativa dirigida por JosÃƒÂ© Alvarenga Jr. e MÃƒÂ¡rio MÃƒÂ¡rcio Bandarra e escrita por Fernando Bonassi e MarÃƒÂ§al Aquino.\n\nNa trama, a corregedoria chefiada pelo Coronel Caetano (Milton GonÃƒÂ§alves) tem seis policiais com a difÃƒÂ­cil missÃƒÂ£o de investigar a prÃƒÂ³pria polÃƒÂ­cia. O Tenente Wilson (Murilo BenÃƒÂ­cio) ÃƒÂ© o mais inflexÃƒÂ­vel quando a lei ÃƒÂ© descumprida e segue ÃƒÂ  risca seus rÃƒÂ­gidos princÃƒÂ­pios de justiÃƒÂ§a e seus compromissos com a corporaÃƒÂ§ÃƒÂ£o, o que gera diversos conflitos com a namorada Jaqueline (Fabiula Nascimento).\n\nNa equipe do Coronel estÃƒÂ£o ainda Selma (Hermila Guedes), Jorge (Rodrigo Einsfeld), Irineu (Juliano CazarrÃƒÂ©), Oberdan (Henrique Neves) e Genival (Osvaldo BaraÃƒÂºna). Para solucionar os casos que chegam ÃƒÂ  corporaÃƒÂ§ÃƒÂ£o, Wilson conta com Samuca (Nando Cunha), seu principal informante, e com a figura de Jonas (RogÃƒÂ©rio Trindade), personagem que habita seu passado.\n\n\nScreencap &lt;a href=&quot;\nhttp://i.imgur.com/UEfqA.jpg&quot; rel=&quot;nofollow&quot; target=&quot;_NEW&quot;&gt;\nhttp://i.imgur.com/UEfqA.jpg&lt;/a&gt;\n\nGravaÃƒÂ§ÃƒÂ£o\n\nSite oficial &lt;a href=&quot;\nhttp://forcatarefa.globo.com&quot; rel=&quot;nofollow&quot; target=&quot;_NEW&quot;&gt;\nhttp://forcatarefa.globo.com&lt;/a&gt;\n\nWikipÃƒÂ©dia  &lt;a href=&quot;\nhttp://pt.wikipedia.org/wiki/ForÃƒÂ§a_Tarefa_(sÃƒÂ©rie)&quot; rel=&quot;nofollow&quot; target=&quot;_NEW&quot;&gt;\nhttp://pt.wikipedia.org/wiki/ForÃƒÂ§a_Tarefa_(sÃƒÂ©rie)&lt;/a&gt;\n\nOrangotag &lt;a href=&quot;\nhttp://orangotag.com/show/2870-for-a-tarefa&quot; rel=&quot;nofollow&quot; target=&quot;_NEW&quot;&gt;\nhttp://orangotag.com/show/2870-for-a-tarefa&lt;/a&gt;\n\n\nMediaInfo\n\nGeneral\n\nUnique ID                                : 215751722329810502221836619283543048176 (0xA250452FAE6F63F2A8E19D7C68E73FF0)\nComplete name                            : /home/ubuntu/Downloads/Forca.Tarefa.S03E06.720p.HDTV.x264-VCVix.mkv\nFormat                                   : Matroska\nFormat version                           : Version 2\nFile size                                : 939 MiB\nDuration                                 : 34mn 9s\nOverall bit rate                         : 3 842 Kbps\nEncoded date                             : UTC 2011-12-09 09:52:11\nWriting application                      : mkvmerge v3.3.0 ('Language') built on Mar 24 2010 14:59:24\nWriting library                          : libebml v0.8.0 + libmatroska v0.9.0\n\nVideo\n\nID                                       : 1\nFormat                                   : AVC\nFormat/Info                              : Advanced Video Codec\nFormat profile                           : &lt;a class=&quot;__cf_email__&quot; href=&quot;/cdn-cgi/l/email-protection&quot; data-cfemail=&quot;aee6c7c9c6eee29d809f&quot;&gt;[email&amp;#160;protected]&lt;/a&gt;&lt;script cf-hash='f9e31' type=&quot;text/javascript&quot;&gt;\n/* &lt;![CDATA[ */!function(){try{var t=&quot;currentScript&quot;in document?document.currentScript:function(){for(var t=document.getElementsByTagName(&quot;script&quot;),e=t.length;e--;)if(t[e].getAttribute(&quot;cf-hash&quot;))return t[e]}();if(t&amp;&amp;t.previousSibling){var e,r,n,i,c=t.previousSibling,a=c.getAttribute(&quot;data-cfemail&quot;);if(a){for(e=&quot;&quot;,r=parseInt(a.substr(0,2),16),n=2;a.length-n;n+=2)i=parseInt(a.substr(n,2),16)^r,e+=String.fromCharCode(i);e=document.createTextNode(e),c.parentNode.replaceChild(e,c)}}}catch(u){}}();/* ]]&gt; */&lt;/script&gt;\nFormat settings, CABAC                   : Yes\nFormat settings, ReFrames                : 3 frames\nCodec ID                                 : V_MPEG4/ISO/AVC\nDuration                                 : 34mn 9s\nBit rate                                 : 3 574 Kbps\nWidth                                    : 1 280 pixels\nHeight                                   : 720 pixels\nDisplay aspect ratio                     : 16:9\nFrame rate                               : 29.970 fps\nColor space                              : YUV\nChroma subsampling                       : 4:2:0\nBit depth                                : 8 bits\nScan type                                : Progressive\nBits/(Pixel*Frame)                       : 0.129\nStream size                              : 873 MiB (93%)\nLanguage                                 : English\nDefault                                  : No\nForced                                   : No\n\nAudio\n\nID                                       : 2\nFormat                                   : AC-3\nFormat/Info                              : Audio Coding 3\nMode extension                           : CM (complete main)\nCodec ID                                 : A_AC3\nDuration                                 : 34mn 9s\nBit rate mode                            : Constant\nBit rate                                 : 192 Kbps\nChannel(s)                               : 2 channels\nChannel positions                        : Front: L R\nSampling rate                            : 48.0 KHz\nBit depth                                : 16 bits\nCompression mode                         : Lossy\nDelay relative to video                  : 31ms\nStream size                              : 46.9 MiB (5%)\nLanguage                                 : Portuguese\nDefault                                  : Yes\nForced                                   : No","torrent":{"xt":"urn:btih:1a1e8515c8a7da478e4817bcb78b869e313bda81","amp;dn":"Forca-Tarefa+S03E06+720p+HDTV+x264-VCVix","amp;tr":["udp%3A%2F%2Ftracker.openbittorrent.com%3A80","udp%3A%2F%2Fopen.demonii.com%3A1337","udp%3A%2F%2Ftracker.coppersurfer.tk%3A6969","udp%3A%2F%2Fexodus.desync.com%3A6969"],"infoHash":"1a1e8515c8a7da478e4817bcb78b869e313bda81","infoHashBuffer":{"type":"Buffer","data":[26,30,133,21,200,167,218,71,142,72,23,188,183,139,134,158,49,59,218,129]},"announce":[],"urlList":[]}}